<?xml version="1.0" encoding="iso-8859-1"?>
<!-- Generator: Adobe Illustrator 16.0.0, SVG Export Plug-In . SVG Version: 6.00 Build 0)  -->
<!DOCTYPE svg PUBLIC "-//W3C//DTD SVG 1.1//EN" "http://www.w3.org/Graphics/SVG/1.1/DTD/svg11.dtd">
<svg version="1.1" id="Capa_1" xmlns="http://www.w3.org/2000/svg" xmlns:xlink="http://www.w3.org/1999/xlink" x="0px" y="0px"
	 width="30.332px" height="30.328px" viewBox="0 0 30.332 30.328" style="enable-background:new 0 0 30.332 30.328;"
	 xml:space="preserve">
<path style="fill:#000000;" d="M4.826,6.809L3.84,5.104c-1.4,1.574-2.486,3.434-3.137,5.492h1.934L4.826,6.809z"/>
<path style="fill:#000000;" d="M4.826,15.152l-2.189-3.789H0.5C0.186,12.578,0,13.848,0,15.162c0,1.307,0.184,2.57,0.494,3.777
	h2.143L4.826,15.152z"/>
<path style="fill:#000000;" d="M2.377,19.904H0.768c0.639,1.943,1.66,3.705,2.975,5.213l0.82-1.424L2.377,19.904z"/>
<path style="fill:#000000;" d="M20.535,24.371l-2.188,3.791l0.918,1.592c2.508-0.705,4.754-2.025,6.557-3.805l-0.912-1.578H20.535z"
	/>
<path style="fill:#000000;" d="M12.98,28.443l-0.908,1.566c1,0.211,2.033,0.318,3.094,0.318s2.096-0.107,3.094-0.318l-0.904-1.566
	H12.98z"/>
<path style="fill:#000000;" d="M9.932,24.371H5.555L4.6,26.029c1.812,1.766,4.068,3.066,6.582,3.752l0.936-1.619L9.932,24.371z"/>
<path style="fill:#000000;" d="M27.959,10.596h1.672c-0.625-1.98-1.652-3.779-2.979-5.316l-0.881,1.529L27.959,10.596z"/>
<path style="fill:#000000;" d="M25.771,15.152l2.188,3.787h1.881c0.311-1.207,0.492-2.471,0.492-3.777
	c0-1.314-0.184-2.584-0.498-3.799h-1.875L25.771,15.152z"/>
<path style="fill:#000000;" d="M9.932,6.523l2.186-3.789l-1.223-2.119C8.398,1.35,6.17,2.699,4.387,4.5l1.168,2.023H9.932z"/>
<path style="fill:#000000;" d="M20.535,6.523h4.375l1.117-1.936c-1.77-1.816-3.984-3.188-6.475-3.939l-1.205,2.086L20.535,6.523z"/>
<path style="fill:#000000;" d="M17.355,2.059l0.992-1.721C17.322,0.117,16.258,0,15.166,0s-2.154,0.117-3.178,0.338l0.992,1.721
	H17.355z"/>
<path style="fill:#000000;" d="M25.771,23.693l0.82,1.424c1.314-1.508,2.336-3.27,2.975-5.213h-1.607L25.771,23.693z"/>
<polygon style="fill:#000000;" points="17.016,10.014 18.865,6.809 17.016,3.604 13.316,3.604 11.467,6.809 13.316,10.014 "/>
<polygon style="fill:#000000;" points="9.539,14.125 11.338,11.016 9.539,7.902 5.947,7.902 4.148,11.016 5.947,14.125 "/>
<polygon style="fill:#000000;" points="9.602,16.4 5.883,16.4 4.025,19.619 5.883,22.84 9.602,22.84 11.461,19.619 "/>
<polygon style="fill:#000000;" points="20.951,16.555 19.184,19.619 20.951,22.686 24.492,22.686 26.26,19.619 24.492,16.555 "/>
<polygon style="fill:#000000;" points="13.316,20.486 11.463,23.693 13.316,26.9 17.02,26.9 18.873,23.693 17.02,20.486 "/>
<polygon style="fill:#000000;" points="13.043,11.473 10.918,15.152 13.043,18.834 17.293,18.834 19.416,15.152 17.293,11.473 "/>
<polygon style="fill:#000000;" points="20.926,14.125 24.52,14.125 26.316,11.016 24.52,7.902 20.926,7.902 19.129,11.016 "/>
<g>
</g>
<g>
</g>
<g>
</g>
<g>
</g>
<g>
</g>
<g>
</g>
<g>
</g>
<g>
</g>
<g>
</g>
<g>
</g>
<g>
</g>
<g>
</g>
<g>
</g>
<g>
</g>
<g>
</g>
</svg>
